# xmcd
#
# Track frame offsets:
#	150
#	11822
#	28817
#	40672
#	57497
#	73642
#	89190
#	102305
#	116310
#	128010
#	140380
#	154657
#	169855
#	183640
#	196220
#	208845
#
# Disc length: 2947 seconds
#
# Revision: 1
# Processed by: cddbd v1.4PL0 Copyright (c) Steve Scherf et al.
# Submitted via: audiograbber 1.81.03
#
DISCID=e70b8110
DTITLE=Various Artist - Blues Ballads
DYEAR=1996
DGENRE=Blues
TTITLE0=Etta James - I'd Rather Go Blind
TTITLE1=Howlin' Wolf - The Red Rooster
TTITLE2=Little Walter - Temperature
TTITLE3=Little Milton - Please, Please, Please
TTITLE4=Memphis Slim - Trouble In My Mind
TTITLE5=John Lee Hooker - Hey Baby
TTITLE6=Howlin' Wolf - I've Got A Woman
TTITLE7=Muddy Waters - Forty Days And Forty Nights
TTITLE8=Paul Gayten - Down Boy
TTITLE9=J.B. Lenoir - Korea Blues
TTITLE10=Lowell Fulson - Reconsider Baby
TTITLE11=Sonny Boy Williamson - Cross My Heart
TTITLE12=Koko Taylor - I Got What It Takes
TTITLE13=Muddy Waters - Train Fare Home Blues
TTITLE14=Big Bill Broonzy - Lonesome
TTITLE15=John Lee Hooker - I'm In The Mood
EXTD=
EXTT0=
EXTT1=
EXTT2=
EXTT3=
EXTT4=
EXTT5=
EXTT6=
EXTT7=
EXTT8=
EXTT9=
EXTT10=
EXTT11=
EXTT12=
EXTT13=
EXTT14=
EXTT15=
PLAYORDER=
